<svg data-v-423bf9ae="" xmlns="http://www.w3.org/2000/svg" viewBox="0 0 100.7454508001154 60" class="font"><!----><!----><defs data-v-423bf9ae=""><linearGradient data-v-423bf9ae="" gradientTransform="rotate(25)" id="eb50f4c6-bb1e-4546-8212-345f0a7e8af6" x1="0%" y1="0%" x2="100%" y2="0%"><stop data-v-423bf9ae="" offset="0%" style="stop-color: rgb(0, 21, 214); stop-opacity: 1;"></stop><stop data-v-423bf9ae="" offset="100%" style="stop-color: rgb(9, 137, 251); stop-opacity: 1;"></stop></linearGradient></defs><g data-v-423bf9ae="" id="647e9d66-7799-4802-9d1c-261ce3fb6aa5" fill="url(#eb50f4c6-bb1e-4546-8212-345f0a7e8af6)" transform="matrix(5.454545497894287,0,0,5.454545497894287,-1.363635778427124,-5.127273082733154)"><path d="M7.22 7.85C7.22 7.85 6.03 7.94 5.04 7.94C3.81 7.94 3.53 7.67 3.53 5.78C3.53 3.93 3.79 3.68 5.04 3.68C6.03 3.68 7.18 3.82 7.18 3.82L7.27 1.32C7.27 1.32 5.45 0.94 4.40 0.94C1.15 0.94 0.25 2.09 0.25 5.78C0.25 9.59 1.18 10.68 4.26 10.68C5.78 10.68 7.27 10.32 7.27 10.32ZM14.60 7.85C14.60 7.85 13.41 7.94 12.42 7.94C11.19 7.94 10.91 7.67 10.91 5.78C10.91 3.93 11.17 3.68 12.42 3.68C13.41 3.68 14.56 3.82 14.56 3.82L14.64 1.32C14.64 1.32 12.82 0.94 11.77 0.94C8.53 0.94 7.63 2.09 7.63 5.78C7.63 9.59 8.55 10.68 11.63 10.68C13.16 10.68 14.64 10.32 14.64 10.32ZM15.02 11.94L17.61 11.94L18.72 7.80L15.33 7.80ZM15.37 6.79L18.56 6.79L18.56 4.00L15.37 4.00Z"></path></g><!----><!----></svg>